<!-- Hand typed by Samuel Taylor in Sublime Text with referral to https://developer.mozilla.org/en/docs/Web/SVG/Tutorial/Paths -->
<svg xmlns="http://www.w3.org/2000/svg" width="470" height="570">
	<path fill="#ff4d4d" d="M 0 0 h 470 v 470 h -470 v -470 m 129.25 63.45 v 37.6 h 28.2 v 18.8 q -28.2 0 -28.2 56.4 v 173.9 q 0 56.4 56.4 56.4 h 98.7 q 56.4 0 56.4 -56.4 v -173.9 q 0 -56.4 -28.2 -56.4 v -18.8 h 28.2 v -28.2 h -211.5 m 28.2 216.2 h 155.1 v 70.5 q 0 28.2 -28.2 28.2 h -98.7 q -28.2 0 -28.2 -28.2 v -70.5 Z"/>
	<g>
		<g>
			<path d="M 0 510 m 0 20 c 0 -26.66 40 -26.66 40 0 v 40 h -10 v -40 c 0 -13.33 -20 -13.33 -20 0 v 40 h -10 v -40 Z"/>
			<path d="M 0 510 m 30 20 c 0 -26.66 40 -26.66 40 0 v 40 h -10 v -40 c 0 -13.33 -20 -13.33 -20 0 v 40 h -10 v -40 Z"/>
		</g>
		<g>
			<path d="M 80 510 m 0 20 c 0 -26.66 40 -26.66 40 0 v 20 c 0 26.66 -40 26.66 -40 0 v -20 m 10 0 v 20 c 0 13.33 20 13.33 20 0 v -20 c 0 -13.33 -20 -13.33 -20 0 Z"/>
			<path d="M 80 510 m 30 40 h 10 v 20 h -10 v -10 Z"/>
		</g>
		<path d="M 130 510 m 0 20 c 0 -26.66 40 -26.66 40 0 v 40 h -10 v -40 c 0 -13.33 -20 -13.33 -20 0 v 40 h -10 v -40 Z"/>
		<path d="M 210 510 m 0 20 c 0 -26.66 40 -26.66 40 0 v 20 c 0 26.66 -40 26.66 -40 0 v -20 m 10 0 v 20 c 0 13.33 20 13.33 20 0 v -20 c 0 -13.33 -20 -13.33 -20 0 Z"/>
		<g>
			<path d="M 260 510 m 0 20 q 0 -20 20 -20 v 10 q -10 0 -10 10 v 40 h -10 v -40 Z"/>
			<path d="M 260 510 m 10 25 h 10 v 10 h -10 v -10 Z"/>
		</g>
		<g>
			<path d="M 320 510 m 10 -15 c 0 -6.66 10 -6.66 10 0 0 6.66 -10 6.66 -10 0 Z"/>
			<path d="M 320 510 m 10 0 h 10 v 40 q 0 20 -20 20 v -10 q 10 0 10 -10 v -40 Z"/>
		</g>
		<g>
			<path d="M 350 510 m 0 20 c 0 -26.66 40 -26.66 40 0 v 20 c 0 26.66 -40 26.66 -40 0 v -20 m 10 0 v 20 c 0 13.33 20 13.33 20 0 v -20 c 0 -13.33 -20 -13.33 -20 0 Z"/>
			<path d="M 350 510 m 30 40 h 10 v 20 h -10 v -10 Z"/>
		</g>
		<g>
			<path d="M 400 510 m 0 20 c 0 -26.66 40 -26.66 40 0 v 40 h -10 v -40 c 0 -13.33 -20 -13.33 -20 0 v 40 h -10 v -40 Z"/>
			<path d="M 400 510 m 30 20 c 0 -26.66 40 -26.66 40 0 v 40 h -10 v -40 c 0 -13.33 -20 -13.33 -20 0 v 40 h -10 v -40 Z"/>
		</g>
	</g>
</svg>