<!-- Hand typed by Samuel Taylor in Sublime Text with referral to https://developer.mozilla.org/en/docs/Web/SVG/Tutorial/Paths -->
<svg xmlns="http://www.w3.org/2000/svg" width="470" height="580">
	<g transform="scale(4.7, 4.7)">
		<rect fill="#ff4d4d" width="100" height="100"/>
		<path fill="#fff" d="M 27.5 13.5 h 45 v 8 h -6 v 4 q 6 0 6 12 v 37 q 0 12 -12 12 h -21 q -12 0 -12 -12 v -37 q 0 -12 6 -12 v -4 h -6 v -8 m 6 46 v 15 q 0 6 6 6 h 21 q 6 0 6 -6 v -15 h -33 Z"/>
	</g>
	<g>
		<g>
			<path d="M 0 520 m 0 20 c 0 -26.66 40 -26.66 40 0 v 40 h -10 v -40 c 0 -13.33 -20 -13.33 -20 0 v 40 h -10 v -40 Z"/>
			<path d="M 0 520 m 30 20 c 0 -26.66 40 -26.66 40 0 v 40 h -10 v -40 c 0 -13.33 -20 -13.33 -20 0 v 40 h -10 v -40 Z"/>
		</g>
		<g>
			<path d="M 80 520 m 0 20 c 0 -26.66 40 -26.66 40 0 v 20 c 0 26.66 -40 26.66 -40 0 v -20 m 10 0 v 20 c 0 13.33 20 13.33 20 0 v -20 c 0 -13.33 -20 -13.33 -20 0 Z"/>
			<path d="M 80 520 m 30 40 h 10 v 20 h -10 v -10 Z"/>
		</g>
		<path d="M 130 520 m 0 20 c 0 -26.66 40 -26.66 40 0 v 40 h -10 v -40 c 0 -13.33 -20 -13.33 -20 0 v 40 h -10 v -40 Z"/>
		<path d="M 210 520 m 0 20 c 0 -26.66 40 -26.66 40 0 v 20 c 0 26.66 -40 26.66 -40 0 v -20 m 10 0 v 20 c 0 13.33 20 13.33 20 0 v -20 c 0 -13.33 -20 -13.33 -20 0 Z"/>
		<g>
			<path d="M 260 520 m 0 20 q 0 -20 20 -20 v 10 q -10 0 -10 10 v 40 h -10 v -40 Z"/>
			<path d="M 260 520 m 10 25 h 10 v 10 h -10 v -10 Z"/>
		</g>
		<g>
			<path d="M 320 520 m 10 -15 c 0 -6.66 10 -6.66 10 0 0 6.66 -10 6.66 -10 0 Z"/>
			<path d="M 320 520 m 10 0 h 10 v 40 q 0 20 -20 20 v -10 q 10 0 10 -10 v -40 Z"/>
		</g>
		<g>
			<path d="M 350 520 m 0 20 c 0 -26.66 40 -26.66 40 0 v 20 c 0 26.66 -40 26.66 -40 0 v -20 m 10 0 v 20 c 0 13.33 20 13.33 20 0 v -20 c 0 -13.33 -20 -13.33 -20 0 Z"/>
			<path d="M 350 520 m 30 40 h 10 v 20 h -10 v -10 Z"/>
		</g>
		<g>
			<path d="M 400 520 m 0 20 c 0 -26.66 40 -26.66 40 0 v 40 h -10 v -40 c 0 -13.33 -20 -13.33 -20 0 v 40 h -10 v -40 Z"/>
			<path d="M 400 520 m 30 20 c 0 -26.66 40 -26.66 40 0 v 40 h -10 v -40 c 0 -13.33 -20 -13.33 -20 0 v 40 h -10 v -40 Z"/>
		</g>
	</g>
</svg>